<svg width="75" height="101" viewBox="0 0 75 101" fill="none" xmlns="http://www.w3.org/2000/svg">
<path d="M71.121 40.4894V48.7631C71.1254 57.4947 67.6901 65.8766 61.5589 72.0936C58.5969 75.1125 55.0771 77.5277 51.1947 79.2052C48.2682 80.4695 45.1683 81.2871 41.9989 81.6304V93.6241H56.601C57.529 93.6241 58.419 93.9928 59.0751 94.6489C59.7313 95.3051 60.1 96.1951 60.1 97.1231C60.1 98.0511 59.7313 98.941 59.0751 99.5972C58.419 100.253 57.529 100.622 56.601 100.622H20.3989C19.4709 100.622 18.581 100.253 17.9248 99.5972C17.2686 98.941 16.9 98.0511 16.9 97.1231C16.9 96.1951 17.2686 95.3051 17.9248 94.6489C18.581 93.9928 19.4709 93.6241 20.3989 93.6241H35.001V81.6304C31.8317 81.2866 28.7319 80.4691 25.8052 79.2052C21.9228 77.5277 18.403 75.1125 15.441 72.0936C9.30833 65.8751 5.87284 57.4906 5.87891 48.7568V40.4831C5.87891 40.0232 5.9695 39.5678 6.1455 39.1429C6.32149 38.718 6.57946 38.3319 6.90466 38.0067C7.22986 37.6815 7.61593 37.4235 8.04082 37.2476C8.46572 37.0716 8.92112 36.981 9.38102 36.981C9.84092 36.981 10.2963 37.0716 10.7212 37.2476C11.1461 37.4235 11.5322 37.6815 11.8574 38.0067C12.1826 38.3319 12.4405 38.718 12.6165 39.1429C12.7925 39.5678 12.8831 40.0232 12.8831 40.4831V48.7568C12.8648 55.654 15.5784 62.2779 20.4305 67.1799C22.7786 69.5967 25.5876 71.5178 28.6913 72.8297C31.795 74.1416 35.1304 74.8175 38.5 74.8175C41.8696 74.8175 45.2049 74.1416 48.3086 72.8297C51.4123 71.5178 54.2214 69.5967 56.5694 67.1799C61.4203 62.2771 64.1337 55.6537 64.1168 48.7568V40.4831C64.1168 39.5543 64.4858 38.6635 65.1426 38.0067C65.7993 37.3499 66.6901 36.981 67.6189 36.981C68.5477 36.981 69.4385 37.3499 70.0953 38.0067C70.752 38.6635 71.121 39.5606 71.121 40.4894ZM21.2579 55.9947C20.2766 53.7083 19.7758 51.2447 19.7863 48.7568V20.4241C19.7708 17.9112 20.2716 15.4218 21.2579 13.1104C23.1767 8.58774 26.7773 4.98719 31.3 3.06834C33.6112 2.0816 36.1007 1.5807 38.6137 1.59676C41.1146 1.5792 43.5919 2.08027 45.8894 3.06834C49.2698 4.53358 52.1453 6.95968 54.1585 10.0453C56.1718 13.1308 57.2341 16.7399 57.2137 20.4241L57.1379 48.7631C57.1526 53.7049 55.2086 58.4513 51.7315 61.9631C50.0283 63.6581 48.0205 65.0166 45.8137 65.9673C43.5161 66.9554 41.0388 67.4564 38.5379 67.4389C36.0249 67.4544 33.5356 66.9535 31.2242 65.9673C26.7267 64.0729 23.1494 60.4933 21.2579 55.9947Z" fill="#6179EF"/>
<path d="M1.41989 0.685511C2.97435 -0.463348 5.16549 -0.134547 6.31442 1.41989L74.3144 93.4199C75.4633 94.9743 75.1345 97.1655 73.58 98.3144C72.0256 99.4633 69.8344 99.1345 68.6855 97.58L0.685511 5.58004C-0.463348 4.02558 -0.134547 1.83444 1.41989 0.685511Z" fill="white"/>
</svg>
